<?xml version="1.0" encoding="UTF-8" standalone="no" ?>
<!DOCTYPE svg PUBLIC "-//W3C//DTD SVG 1.1//EN" "http://www.w3.org/Graphics/SVG/1.1/DTD/svg11.dtd">
<svg xmlns="http://www.w3.org/2000/svg" xmlns:xlink="http://www.w3.org/1999/xlink" version="1.1" width="800" height="800" viewBox="0 0 800 800" xml:space="preserve">
<desc>Created with Fabric.js 5.2.4</desc>
<defs>
</defs>
<g transform="matrix(Infinity NaN NaN Infinity 0 0)" id="a265e9f7-7d60-4c0c-aebe-9ece6fc0956d"  >
</g>
<g transform="matrix(1 0 0 1 400 400)" id="a42a5c41-7f07-40d8-a1db-add9e545c991"  >
<rect style="stroke: none; stroke-width: 1; stroke-dasharray: none; stroke-linecap: butt; stroke-dashoffset: 0; stroke-linejoin: miter; stroke-miterlimit: 4; fill: rgb(255,255,255); fill-rule: nonzero; opacity: 1; visibility: hidden;" vector-effect="non-scaling-stroke"  x="-400" y="-400" rx="0" ry="0" width="800" height="800" />
</g>
<g transform="matrix(15.74 0 0 15.74 400 400)" id="966aa076-1276-468c-9b6e-b832eee6aa1d"  >
<path style="stroke: rgb(0,0,0); stroke-width: 0; stroke-dasharray: none; stroke-linecap: butt; stroke-dashoffset: 0; stroke-linejoin: miter; stroke-miterlimit: 4; fill: rgb(255,255,255); fill-rule: nonzero; opacity: 1;" vector-effect="non-scaling-stroke"  transform=" translate(-32, -32)" d="M 55 54 C 55 54.5522 54.5527 55 54 55 L 10 55 C 9.4473 55 9 54.5522 9 54 L 9 10 C 9 9.4478 9.4473 9 10 9 C 10.5527 9 11 9.4478 11 10 L 11 38 L 16.4639 38 C 17.0235 37.9438 19.7207 37.8433 21.7823 40.8716 C 22.0948 41.3301 22.3673 41.7705 22.6173 42.1773 C 23.3185 43.313500000000005 23.7384 43.9566 24.2091 43.9566 C 24.7989 43.9566 25.6896 43.9566 27.9396 37.6739 C 29.397599999999997 33.60210000000001 30.9503 29.068400000000004 31.7472 26.728600000000004 C 32.298 25.110900000000004 33.8185 24.024500000000003 35.5314 24.024500000000003 L 36.844899999999996 24.024500000000003 C 38.701299999999996 24.024500000000003 40.300999999999995 25.287200000000002 40.735499999999995 27.094800000000003 C 41.284299999999995 29.386300000000002 41.57829999999999 30.015700000000002 41.65539999999999 30.154400000000003 C 41.947399999999995 30.676900000000003 42.556799999999996 31.765200000000004 45.16709999999999 31.196900000000003 C 48.51569999999999 30.466400000000004 49.28819999999999 31.051400000000005 50.58699999999999 33.764300000000006 C 51.65829999999999 36.0001 54.81449999999999 41.02160000000001 54.84679999999999 41.07190000000001 C 55.14069999999999 41.53920000000001 55.00009999999999 42.15690000000001 54.532299999999985 42.45080000000001 C 54.066499999999984 42.74770000000001 53.44829999999998 42.604600000000005 53.15339999999998 42.13730000000001 C 53.021599999999985 41.92730000000001 49.90439999999998 36.96790000000001 48.78329999999998 34.628000000000014 Q 47.839899999999986 32.661200000000015 45.594799999999985 33.150900000000014 C 42.898499999999984 33.73980000000002 40.988399999999984 33.05810000000002 39.90929999999999 31.129400000000015 C 39.794099999999986 30.922900000000016 39.44639999999999 30.297900000000016 38.790199999999984 27.561000000000014 C 38.573399999999985 26.656700000000015 37.77359999999999 26.024400000000014 36.84489999999998 26.024400000000014 L 35.531399999999984 26.024400000000014 C 34.67499999999998 26.024400000000014 33.915199999999984 26.566400000000016 33.63979999999999 27.373000000000015 C 32.84189999999999 29.718200000000017 31.285299999999985 34.263100000000016 29.822399999999988 38.347600000000014 C 27.734499999999986 44.17870000000001 26.422999999999988 45.95650000000001 24.20909999999999 45.95650000000001 C 22.59869999999999 45.95650000000001 21.781399999999987 44.630800000000015 20.915199999999988 43.22700000000001 C 20.67979999999999 42.84420000000001 20.42399999999999 42.42910000000001 20.12999999999999 41.99750000000001 C 18.60659999999999 39.75870000000001 16.743299999999987 39.97940000000001 16.667099999999987 39.98920000000001 C 16.623199999999986 39.99510000000001 16.565499999999986 39.99990000000001 16.52159999999999 39.99990000000001 L 11.000099999999989 39.99990000000001 L 11.000099999999989 52.99990000000001 L 54 52.99990000000001 C 54.5527 52.99990000000001 55 53.44770000000001 55 53.99990000000001 Z M 54 46 L 51 46 C 50.4473 46 50 46.4478 50 47 C 50 47.5522 50.4473 48 51 48 L 54 48 C 54.5527 48 55 47.5522 55 47 C 55 46.4478 54.5527 46 54 46 Z" stroke-linecap="round" />
</g>
</svg>